<mxfile host="app.diagrams.net" modified="2024-01-31T23:46:39.259Z" agent="Mozilla/5.0 (Windows NT 10.0; Win64; x64; rv:122.0) Gecko/20100101 Firefox/122.0" etag="a33ZcyHFrdoEMygSIozg" version="23.1.0" type="github" pages="2">
  <diagram id="C5RBs43oDa-KdzZeNtuy" name="Workspaces">
    <mxGraphModel dx="1434" dy="774" grid="1" gridSize="10" guides="1" tooltips="1" connect="1" arrows="1" fold="1" page="1" pageScale="1" pageWidth="827" pageHeight="1169" math="0" shadow="0">
      <root>
        <mxCell id="WIyWlLk6GJQsqaUBKTNV-0" />
        <mxCell id="WIyWlLk6GJQsqaUBKTNV-1" parent="WIyWlLk6GJQsqaUBKTNV-0" />
        <mxCell id="v_i5tdnr1hRKdBCCS-yl-0" value="&lt;div align=&quot;left&quot;&gt;Description: This page contains the workspace.&amp;nbsp;&lt;/div&gt;&lt;div align=&quot;left&quot;&gt;When the client starts the tool, they will need to create a workspace before being able to do any actions. All information will be stored under that&amp;nbsp;&lt;/div&gt;&lt;div align=&quot;left&quot;&gt;workspace. When a client closes the tool their progress wont be lost since the state is stored. When they restart the tool the workspacecan be&amp;nbsp;&lt;/div&gt;&lt;div align=&quot;left&quot;&gt;restarted and the state is loaded.&lt;br&gt;&lt;/div&gt;" style="text;html=1;align=left;verticalAlign=middle;resizable=0;points=[];autosize=1;strokeColor=none;fillColor=none;" vertex="1" parent="WIyWlLk6GJQsqaUBKTNV-1">
          <mxGeometry x="27" y="60" width="800" height="70" as="geometry" />
        </mxCell>
        <mxCell id="EzBYOWv9G92g1Ca4GdDH-0" value="Workspaces" style="text;strokeColor=none;fillColor=none;html=1;fontSize=24;fontStyle=1;verticalAlign=middle;align=center;" vertex="1" parent="WIyWlLk6GJQsqaUBKTNV-1">
          <mxGeometry x="364" y="20" width="100" height="40" as="geometry" />
        </mxCell>
        <mxCell id="EzBYOWv9G92g1Ca4GdDH-5" value="" style="edgeStyle=orthogonalEdgeStyle;rounded=0;orthogonalLoop=1;jettySize=auto;html=1;" edge="1" parent="WIyWlLk6GJQsqaUBKTNV-1" source="EzBYOWv9G92g1Ca4GdDH-1" target="EzBYOWv9G92g1Ca4GdDH-4">
          <mxGeometry relative="1" as="geometry" />
        </mxCell>
        <mxCell id="EzBYOWv9G92g1Ca4GdDH-1" value="Visit" style="rounded=0;whiteSpace=wrap;html=1;" vertex="1" parent="WIyWlLk6GJQsqaUBKTNV-1">
          <mxGeometry x="30" y="180" width="40" height="30" as="geometry" />
        </mxCell>
        <mxCell id="EzBYOWv9G92g1Ca4GdDH-7" value="" style="edgeStyle=orthogonalEdgeStyle;rounded=0;orthogonalLoop=1;jettySize=auto;html=1;" edge="1" parent="WIyWlLk6GJQsqaUBKTNV-1" source="EzBYOWv9G92g1Ca4GdDH-4" target="EzBYOWv9G92g1Ca4GdDH-6">
          <mxGeometry relative="1" as="geometry" />
        </mxCell>
        <mxCell id="EzBYOWv9G92g1Ca4GdDH-4" value="useEffect" style="rounded=0;whiteSpace=wrap;html=1;" vertex="1" parent="WIyWlLk6GJQsqaUBKTNV-1">
          <mxGeometry x="150" y="180" width="80" height="30" as="geometry" />
        </mxCell>
        <mxCell id="EzBYOWv9G92g1Ca4GdDH-6" value="&lt;div&gt;Retrieve workspaces&lt;/div&gt;&lt;div&gt;/workspaces&lt;br&gt;&lt;/div&gt;" style="rounded=0;whiteSpace=wrap;html=1;" vertex="1" parent="WIyWlLk6GJQsqaUBKTNV-1">
          <mxGeometry x="270" y="170" width="120" height="50" as="geometry" />
        </mxCell>
      </root>
    </mxGraphModel>
  </diagram>
  <diagram id="JPrMjwllJHFuSHFrtml3" name="Context Hierarchy">
    <mxGraphModel dx="1434" dy="774" grid="1" gridSize="10" guides="1" tooltips="1" connect="1" arrows="1" fold="1" page="1" pageScale="1" pageWidth="850" pageHeight="1100" math="0" shadow="0">
      <root>
        <mxCell id="0" />
        <mxCell id="1" parent="0" />
        <mxCell id="B08eD8HXd-b1nJFd696g-1" value="Workspace 1" style="swimlane;startSize=20;horizontal=1;containerType=tree;newEdgeStyle={&quot;edgeStyle&quot;:&quot;elbowEdgeStyle&quot;,&quot;startArrow&quot;:&quot;none&quot;,&quot;endArrow&quot;:&quot;none&quot;};" vertex="1" parent="1">
          <mxGeometry x="20" y="30" width="810" height="340" as="geometry" />
        </mxCell>
        <mxCell id="B08eD8HXd-b1nJFd696g-3" value="" style="edgeStyle=elbowEdgeStyle;elbow=vertical;sourcePerimeterSpacing=0;targetPerimeterSpacing=0;startArrow=none;endArrow=none;rounded=0;curved=0;" edge="1" parent="B08eD8HXd-b1nJFd696g-1" source="B08eD8HXd-b1nJFd696g-4" target="B08eD8HXd-b1nJFd696g-6">
          <mxGeometry relative="1" as="geometry" />
        </mxCell>
        <UserObject label="Workspace 1" treeRoot="1" id="B08eD8HXd-b1nJFd696g-4">
          <mxCell style="whiteSpace=wrap;html=1;align=center;treeFolding=1;treeMoving=1;newEdgeStyle={&quot;edgeStyle&quot;:&quot;elbowEdgeStyle&quot;,&quot;startArrow&quot;:&quot;none&quot;,&quot;endArrow&quot;:&quot;none&quot;};" vertex="1" parent="B08eD8HXd-b1nJFd696g-1">
            <mxGeometry x="340" y="30" width="120" height="60" as="geometry" />
          </mxCell>
        </UserObject>
        <mxCell id="B08eD8HXd-b1nJFd696g-6" value="Network" style="whiteSpace=wrap;html=1;align=center;verticalAlign=middle;treeFolding=1;treeMoving=1;newEdgeStyle={&quot;edgeStyle&quot;:&quot;elbowEdgeStyle&quot;,&quot;startArrow&quot;:&quot;none&quot;,&quot;endArrow&quot;:&quot;none&quot;};" vertex="1" parent="B08eD8HXd-b1nJFd696g-1">
          <mxGeometry x="350" y="110" width="100" height="60" as="geometry" />
        </mxCell>
        <mxCell id="B08eD8HXd-b1nJFd696g-7" style="edgeStyle=elbowEdgeStyle;rounded=0;orthogonalLoop=1;jettySize=auto;html=1;startArrow=none;endArrow=none;exitX=1;exitY=0;exitDx=0;exitDy=0;" edge="1" parent="B08eD8HXd-b1nJFd696g-1" source="B08eD8HXd-b1nJFd696g-4" target="B08eD8HXd-b1nJFd696g-4">
          <mxGeometry relative="1" as="geometry" />
        </mxCell>
        <mxCell id="B08eD8HXd-b1nJFd696g-10" value="" style="edgeStyle=elbowEdgeStyle;elbow=vertical;sourcePerimeterSpacing=0;targetPerimeterSpacing=0;startArrow=none;endArrow=none;rounded=0;curved=0;" edge="1" target="B08eD8HXd-b1nJFd696g-11" source="B08eD8HXd-b1nJFd696g-6" parent="B08eD8HXd-b1nJFd696g-1">
          <mxGeometry relative="1" as="geometry">
            <mxPoint x="530" y="120" as="sourcePoint" />
          </mxGeometry>
        </mxCell>
        <mxCell id="B08eD8HXd-b1nJFd696g-33" style="edgeStyle=elbowEdgeStyle;rounded=0;orthogonalLoop=1;jettySize=auto;html=1;startArrow=none;endArrow=none;" edge="1" parent="B08eD8HXd-b1nJFd696g-1" source="B08eD8HXd-b1nJFd696g-11" target="B08eD8HXd-b1nJFd696g-29">
          <mxGeometry relative="1" as="geometry" />
        </mxCell>
        <mxCell id="B08eD8HXd-b1nJFd696g-11" value="Sub-Network 2" style="whiteSpace=wrap;html=1;align=center;verticalAlign=middle;treeFolding=1;treeMoving=1;newEdgeStyle={&quot;edgeStyle&quot;:&quot;elbowEdgeStyle&quot;,&quot;startArrow&quot;:&quot;none&quot;,&quot;endArrow&quot;:&quot;none&quot;};" vertex="1" parent="B08eD8HXd-b1nJFd696g-1">
          <mxGeometry x="350" y="210" width="100" height="60" as="geometry" />
        </mxCell>
        <mxCell id="B08eD8HXd-b1nJFd696g-12" value="" style="edgeStyle=elbowEdgeStyle;elbow=vertical;sourcePerimeterSpacing=0;targetPerimeterSpacing=0;startArrow=none;endArrow=none;rounded=0;curved=0;" edge="1" target="B08eD8HXd-b1nJFd696g-13" source="B08eD8HXd-b1nJFd696g-6" parent="B08eD8HXd-b1nJFd696g-1">
          <mxGeometry relative="1" as="geometry">
            <mxPoint x="530" y="120" as="sourcePoint" />
          </mxGeometry>
        </mxCell>
        <mxCell id="B08eD8HXd-b1nJFd696g-23" style="edgeStyle=elbowEdgeStyle;rounded=0;orthogonalLoop=1;jettySize=auto;html=1;startArrow=none;endArrow=none;" edge="1" parent="B08eD8HXd-b1nJFd696g-1" source="B08eD8HXd-b1nJFd696g-13" target="B08eD8HXd-b1nJFd696g-20">
          <mxGeometry relative="1" as="geometry" />
        </mxCell>
        <mxCell id="B08eD8HXd-b1nJFd696g-25" style="edgeStyle=elbowEdgeStyle;rounded=0;orthogonalLoop=1;jettySize=auto;html=1;startArrow=none;endArrow=none;entryX=1;entryY=0.5;entryDx=0;entryDy=0;" edge="1" parent="B08eD8HXd-b1nJFd696g-1" source="B08eD8HXd-b1nJFd696g-13" target="B08eD8HXd-b1nJFd696g-24">
          <mxGeometry relative="1" as="geometry" />
        </mxCell>
        <mxCell id="B08eD8HXd-b1nJFd696g-13" value="Sub-Network 1" style="whiteSpace=wrap;html=1;align=center;verticalAlign=middle;treeFolding=1;treeMoving=1;newEdgeStyle={&quot;edgeStyle&quot;:&quot;elbowEdgeStyle&quot;,&quot;startArrow&quot;:&quot;none&quot;,&quot;endArrow&quot;:&quot;none&quot;};" vertex="1" parent="B08eD8HXd-b1nJFd696g-1">
          <mxGeometry x="220" y="210" width="100" height="60" as="geometry" />
        </mxCell>
        <mxCell id="B08eD8HXd-b1nJFd696g-16" value="" style="edgeStyle=elbowEdgeStyle;elbow=vertical;sourcePerimeterSpacing=0;targetPerimeterSpacing=0;startArrow=none;endArrow=none;rounded=0;curved=0;" edge="1" target="B08eD8HXd-b1nJFd696g-17" source="B08eD8HXd-b1nJFd696g-6" parent="B08eD8HXd-b1nJFd696g-1">
          <mxGeometry relative="1" as="geometry">
            <mxPoint x="530" y="120" as="sourcePoint" />
          </mxGeometry>
        </mxCell>
        <mxCell id="B08eD8HXd-b1nJFd696g-34" style="edgeStyle=elbowEdgeStyle;rounded=0;orthogonalLoop=1;jettySize=auto;html=1;startArrow=none;endArrow=none;" edge="1" parent="B08eD8HXd-b1nJFd696g-1" source="B08eD8HXd-b1nJFd696g-17" target="B08eD8HXd-b1nJFd696g-28">
          <mxGeometry relative="1" as="geometry" />
        </mxCell>
        <mxCell id="B08eD8HXd-b1nJFd696g-38" style="edgeStyle=elbowEdgeStyle;rounded=0;orthogonalLoop=1;jettySize=auto;html=1;startArrow=none;endArrow=none;" edge="1" parent="B08eD8HXd-b1nJFd696g-1" source="B08eD8HXd-b1nJFd696g-17" target="B08eD8HXd-b1nJFd696g-27">
          <mxGeometry relative="1" as="geometry" />
        </mxCell>
        <mxCell id="B08eD8HXd-b1nJFd696g-17" value="Sub-Network 3" style="whiteSpace=wrap;html=1;align=center;verticalAlign=middle;treeFolding=1;treeMoving=1;newEdgeStyle={&quot;edgeStyle&quot;:&quot;elbowEdgeStyle&quot;,&quot;startArrow&quot;:&quot;none&quot;,&quot;endArrow&quot;:&quot;none&quot;};" vertex="1" parent="B08eD8HXd-b1nJFd696g-1">
          <mxGeometry x="480" y="210" width="100" height="60" as="geometry" />
        </mxCell>
        <mxCell id="B08eD8HXd-b1nJFd696g-18" value="" style="edgeStyle=elbowEdgeStyle;elbow=vertical;sourcePerimeterSpacing=0;targetPerimeterSpacing=0;startArrow=none;endArrow=none;rounded=0;curved=0;" edge="1" target="B08eD8HXd-b1nJFd696g-19" source="B08eD8HXd-b1nJFd696g-13" parent="B08eD8HXd-b1nJFd696g-1">
          <mxGeometry relative="1" as="geometry">
            <mxPoint x="470" y="200" as="sourcePoint" />
          </mxGeometry>
        </mxCell>
        <mxCell id="B08eD8HXd-b1nJFd696g-19" value="Machine 1.2" style="whiteSpace=wrap;html=1;align=center;verticalAlign=middle;treeFolding=1;treeMoving=1;newEdgeStyle={&quot;edgeStyle&quot;:&quot;elbowEdgeStyle&quot;,&quot;startArrow&quot;:&quot;none&quot;,&quot;endArrow&quot;:&quot;none&quot;};" vertex="1" parent="B08eD8HXd-b1nJFd696g-1">
          <mxGeometry x="130" y="290" width="90" height="20" as="geometry" />
        </mxCell>
        <mxCell id="B08eD8HXd-b1nJFd696g-20" value="Machine 1.3" style="whiteSpace=wrap;html=1;align=center;verticalAlign=middle;treeFolding=1;treeMoving=1;newEdgeStyle={&quot;edgeStyle&quot;:&quot;elbowEdgeStyle&quot;,&quot;startArrow&quot;:&quot;none&quot;,&quot;endArrow&quot;:&quot;none&quot;};" vertex="1" parent="B08eD8HXd-b1nJFd696g-1">
          <mxGeometry x="240" y="290" width="90" height="20" as="geometry" />
        </mxCell>
        <mxCell id="B08eD8HXd-b1nJFd696g-24" value="Machine 1.1" style="whiteSpace=wrap;html=1;align=center;verticalAlign=middle;treeFolding=1;treeMoving=1;newEdgeStyle={&quot;edgeStyle&quot;:&quot;elbowEdgeStyle&quot;,&quot;startArrow&quot;:&quot;none&quot;,&quot;endArrow&quot;:&quot;none&quot;};" vertex="1" parent="B08eD8HXd-b1nJFd696g-1">
          <mxGeometry x="100" y="230" width="90" height="20" as="geometry" />
        </mxCell>
        <mxCell id="B08eD8HXd-b1nJFd696g-27" value="Machine 3" style="whiteSpace=wrap;html=1;align=center;verticalAlign=middle;treeFolding=1;treeMoving=1;newEdgeStyle={&quot;edgeStyle&quot;:&quot;elbowEdgeStyle&quot;,&quot;startArrow&quot;:&quot;none&quot;,&quot;endArrow&quot;:&quot;none&quot;};" vertex="1" parent="B08eD8HXd-b1nJFd696g-1">
          <mxGeometry x="610" y="230" width="90" height="20" as="geometry" />
        </mxCell>
        <mxCell id="B08eD8HXd-b1nJFd696g-28" value="Machine 1" style="whiteSpace=wrap;html=1;align=center;verticalAlign=middle;treeFolding=1;treeMoving=1;newEdgeStyle={&quot;edgeStyle&quot;:&quot;elbowEdgeStyle&quot;,&quot;startArrow&quot;:&quot;none&quot;,&quot;endArrow&quot;:&quot;none&quot;};" vertex="1" parent="B08eD8HXd-b1nJFd696g-1">
          <mxGeometry x="480" y="290" width="90" height="20" as="geometry" />
        </mxCell>
        <mxCell id="B08eD8HXd-b1nJFd696g-29" value="Machine 2.1" style="whiteSpace=wrap;html=1;align=center;verticalAlign=middle;treeFolding=1;treeMoving=1;newEdgeStyle={&quot;edgeStyle&quot;:&quot;elbowEdgeStyle&quot;,&quot;startArrow&quot;:&quot;none&quot;,&quot;endArrow&quot;:&quot;none&quot;};" vertex="1" parent="B08eD8HXd-b1nJFd696g-1">
          <mxGeometry x="360" y="290" width="90" height="20" as="geometry" />
        </mxCell>
        <mxCell id="B08eD8HXd-b1nJFd696g-39" style="edgeStyle=elbowEdgeStyle;rounded=0;orthogonalLoop=1;jettySize=auto;html=1;startArrow=none;endArrow=none;exitX=0.75;exitY=1;exitDx=0;exitDy=0;" edge="1" parent="B08eD8HXd-b1nJFd696g-1" source="B08eD8HXd-b1nJFd696g-20" target="B08eD8HXd-b1nJFd696g-20">
          <mxGeometry relative="1" as="geometry" />
        </mxCell>
        <mxCell id="B08eD8HXd-b1nJFd696g-40" value="Workspace 2" style="swimlane;startSize=20;horizontal=1;containerType=tree;newEdgeStyle={&quot;edgeStyle&quot;:&quot;elbowEdgeStyle&quot;,&quot;startArrow&quot;:&quot;none&quot;,&quot;endArrow&quot;:&quot;none&quot;};" vertex="1" parent="1">
          <mxGeometry x="20" y="400" width="810" height="340" as="geometry" />
        </mxCell>
        <mxCell id="B08eD8HXd-b1nJFd696g-41" value="" style="edgeStyle=elbowEdgeStyle;elbow=vertical;sourcePerimeterSpacing=0;targetPerimeterSpacing=0;startArrow=none;endArrow=none;rounded=0;curved=0;" edge="1" parent="B08eD8HXd-b1nJFd696g-40" source="B08eD8HXd-b1nJFd696g-42" target="B08eD8HXd-b1nJFd696g-43">
          <mxGeometry relative="1" as="geometry" />
        </mxCell>
        <UserObject label="Workspace 2" treeRoot="1" id="B08eD8HXd-b1nJFd696g-42">
          <mxCell style="whiteSpace=wrap;html=1;align=center;treeFolding=1;treeMoving=1;newEdgeStyle={&quot;edgeStyle&quot;:&quot;elbowEdgeStyle&quot;,&quot;startArrow&quot;:&quot;none&quot;,&quot;endArrow&quot;:&quot;none&quot;};" vertex="1" parent="B08eD8HXd-b1nJFd696g-40">
            <mxGeometry x="340" y="30" width="120" height="60" as="geometry" />
          </mxCell>
        </UserObject>
        <mxCell id="B08eD8HXd-b1nJFd696g-43" value="Network" style="whiteSpace=wrap;html=1;align=center;verticalAlign=middle;treeFolding=1;treeMoving=1;newEdgeStyle={&quot;edgeStyle&quot;:&quot;elbowEdgeStyle&quot;,&quot;startArrow&quot;:&quot;none&quot;,&quot;endArrow&quot;:&quot;none&quot;};" vertex="1" parent="B08eD8HXd-b1nJFd696g-40">
          <mxGeometry x="350" y="110" width="100" height="60" as="geometry" />
        </mxCell>
        <mxCell id="B08eD8HXd-b1nJFd696g-44" style="edgeStyle=elbowEdgeStyle;rounded=0;orthogonalLoop=1;jettySize=auto;html=1;startArrow=none;endArrow=none;exitX=1;exitY=0;exitDx=0;exitDy=0;" edge="1" parent="B08eD8HXd-b1nJFd696g-40" source="B08eD8HXd-b1nJFd696g-42" target="B08eD8HXd-b1nJFd696g-42">
          <mxGeometry relative="1" as="geometry" />
        </mxCell>
        <mxCell id="B08eD8HXd-b1nJFd696g-45" value="" style="edgeStyle=elbowEdgeStyle;elbow=vertical;sourcePerimeterSpacing=0;targetPerimeterSpacing=0;startArrow=none;endArrow=none;rounded=0;curved=0;" edge="1" parent="B08eD8HXd-b1nJFd696g-40" source="B08eD8HXd-b1nJFd696g-43" target="B08eD8HXd-b1nJFd696g-47">
          <mxGeometry relative="1" as="geometry">
            <mxPoint x="530" y="120" as="sourcePoint" />
          </mxGeometry>
        </mxCell>
        <mxCell id="B08eD8HXd-b1nJFd696g-46" style="edgeStyle=elbowEdgeStyle;rounded=0;orthogonalLoop=1;jettySize=auto;html=1;startArrow=none;endArrow=none;" edge="1" parent="B08eD8HXd-b1nJFd696g-40" source="B08eD8HXd-b1nJFd696g-47" target="B08eD8HXd-b1nJFd696g-62">
          <mxGeometry relative="1" as="geometry" />
        </mxCell>
        <mxCell id="B08eD8HXd-b1nJFd696g-47" value="Sub-Network 2" style="whiteSpace=wrap;html=1;align=center;verticalAlign=middle;treeFolding=1;treeMoving=1;newEdgeStyle={&quot;edgeStyle&quot;:&quot;elbowEdgeStyle&quot;,&quot;startArrow&quot;:&quot;none&quot;,&quot;endArrow&quot;:&quot;none&quot;};" vertex="1" parent="B08eD8HXd-b1nJFd696g-40">
          <mxGeometry x="350" y="210" width="100" height="60" as="geometry" />
        </mxCell>
        <mxCell id="B08eD8HXd-b1nJFd696g-48" value="" style="edgeStyle=elbowEdgeStyle;elbow=vertical;sourcePerimeterSpacing=0;targetPerimeterSpacing=0;startArrow=none;endArrow=none;rounded=0;curved=0;" edge="1" parent="B08eD8HXd-b1nJFd696g-40" source="B08eD8HXd-b1nJFd696g-43" target="B08eD8HXd-b1nJFd696g-51">
          <mxGeometry relative="1" as="geometry">
            <mxPoint x="530" y="120" as="sourcePoint" />
          </mxGeometry>
        </mxCell>
        <mxCell id="B08eD8HXd-b1nJFd696g-49" style="edgeStyle=elbowEdgeStyle;rounded=0;orthogonalLoop=1;jettySize=auto;html=1;startArrow=none;endArrow=none;" edge="1" parent="B08eD8HXd-b1nJFd696g-40" source="B08eD8HXd-b1nJFd696g-51" target="B08eD8HXd-b1nJFd696g-58">
          <mxGeometry relative="1" as="geometry" />
        </mxCell>
        <mxCell id="B08eD8HXd-b1nJFd696g-50" style="edgeStyle=elbowEdgeStyle;rounded=0;orthogonalLoop=1;jettySize=auto;html=1;startArrow=none;endArrow=none;entryX=1;entryY=0.5;entryDx=0;entryDy=0;" edge="1" parent="B08eD8HXd-b1nJFd696g-40" source="B08eD8HXd-b1nJFd696g-51" target="B08eD8HXd-b1nJFd696g-59">
          <mxGeometry relative="1" as="geometry" />
        </mxCell>
        <mxCell id="B08eD8HXd-b1nJFd696g-51" value="Sub-Network 1" style="whiteSpace=wrap;html=1;align=center;verticalAlign=middle;treeFolding=1;treeMoving=1;newEdgeStyle={&quot;edgeStyle&quot;:&quot;elbowEdgeStyle&quot;,&quot;startArrow&quot;:&quot;none&quot;,&quot;endArrow&quot;:&quot;none&quot;};" vertex="1" parent="B08eD8HXd-b1nJFd696g-40">
          <mxGeometry x="220" y="210" width="100" height="60" as="geometry" />
        </mxCell>
        <mxCell id="B08eD8HXd-b1nJFd696g-52" value="" style="edgeStyle=elbowEdgeStyle;elbow=vertical;sourcePerimeterSpacing=0;targetPerimeterSpacing=0;startArrow=none;endArrow=none;rounded=0;curved=0;" edge="1" parent="B08eD8HXd-b1nJFd696g-40" source="B08eD8HXd-b1nJFd696g-43" target="B08eD8HXd-b1nJFd696g-55">
          <mxGeometry relative="1" as="geometry">
            <mxPoint x="530" y="120" as="sourcePoint" />
          </mxGeometry>
        </mxCell>
        <mxCell id="B08eD8HXd-b1nJFd696g-53" style="edgeStyle=elbowEdgeStyle;rounded=0;orthogonalLoop=1;jettySize=auto;html=1;startArrow=none;endArrow=none;" edge="1" parent="B08eD8HXd-b1nJFd696g-40" source="B08eD8HXd-b1nJFd696g-55" target="B08eD8HXd-b1nJFd696g-61">
          <mxGeometry relative="1" as="geometry" />
        </mxCell>
        <mxCell id="B08eD8HXd-b1nJFd696g-54" style="edgeStyle=elbowEdgeStyle;rounded=0;orthogonalLoop=1;jettySize=auto;html=1;startArrow=none;endArrow=none;" edge="1" parent="B08eD8HXd-b1nJFd696g-40" source="B08eD8HXd-b1nJFd696g-55" target="B08eD8HXd-b1nJFd696g-60">
          <mxGeometry relative="1" as="geometry" />
        </mxCell>
        <mxCell id="B08eD8HXd-b1nJFd696g-55" value="Sub-Network 3" style="whiteSpace=wrap;html=1;align=center;verticalAlign=middle;treeFolding=1;treeMoving=1;newEdgeStyle={&quot;edgeStyle&quot;:&quot;elbowEdgeStyle&quot;,&quot;startArrow&quot;:&quot;none&quot;,&quot;endArrow&quot;:&quot;none&quot;};" vertex="1" parent="B08eD8HXd-b1nJFd696g-40">
          <mxGeometry x="480" y="210" width="100" height="60" as="geometry" />
        </mxCell>
        <mxCell id="B08eD8HXd-b1nJFd696g-56" value="" style="edgeStyle=elbowEdgeStyle;elbow=vertical;sourcePerimeterSpacing=0;targetPerimeterSpacing=0;startArrow=none;endArrow=none;rounded=0;curved=0;" edge="1" parent="B08eD8HXd-b1nJFd696g-40" source="B08eD8HXd-b1nJFd696g-51" target="B08eD8HXd-b1nJFd696g-57">
          <mxGeometry relative="1" as="geometry">
            <mxPoint x="470" y="200" as="sourcePoint" />
          </mxGeometry>
        </mxCell>
        <mxCell id="B08eD8HXd-b1nJFd696g-57" value="Machine 1.2" style="whiteSpace=wrap;html=1;align=center;verticalAlign=middle;treeFolding=1;treeMoving=1;newEdgeStyle={&quot;edgeStyle&quot;:&quot;elbowEdgeStyle&quot;,&quot;startArrow&quot;:&quot;none&quot;,&quot;endArrow&quot;:&quot;none&quot;};" vertex="1" parent="B08eD8HXd-b1nJFd696g-40">
          <mxGeometry x="130" y="290" width="90" height="20" as="geometry" />
        </mxCell>
        <mxCell id="B08eD8HXd-b1nJFd696g-58" value="Machine 1.3" style="whiteSpace=wrap;html=1;align=center;verticalAlign=middle;treeFolding=1;treeMoving=1;newEdgeStyle={&quot;edgeStyle&quot;:&quot;elbowEdgeStyle&quot;,&quot;startArrow&quot;:&quot;none&quot;,&quot;endArrow&quot;:&quot;none&quot;};" vertex="1" parent="B08eD8HXd-b1nJFd696g-40">
          <mxGeometry x="240" y="290" width="90" height="20" as="geometry" />
        </mxCell>
        <mxCell id="B08eD8HXd-b1nJFd696g-59" value="Machine 1.1" style="whiteSpace=wrap;html=1;align=center;verticalAlign=middle;treeFolding=1;treeMoving=1;newEdgeStyle={&quot;edgeStyle&quot;:&quot;elbowEdgeStyle&quot;,&quot;startArrow&quot;:&quot;none&quot;,&quot;endArrow&quot;:&quot;none&quot;};" vertex="1" parent="B08eD8HXd-b1nJFd696g-40">
          <mxGeometry x="100" y="230" width="90" height="20" as="geometry" />
        </mxCell>
        <mxCell id="B08eD8HXd-b1nJFd696g-60" value="Machine 3" style="whiteSpace=wrap;html=1;align=center;verticalAlign=middle;treeFolding=1;treeMoving=1;newEdgeStyle={&quot;edgeStyle&quot;:&quot;elbowEdgeStyle&quot;,&quot;startArrow&quot;:&quot;none&quot;,&quot;endArrow&quot;:&quot;none&quot;};" vertex="1" parent="B08eD8HXd-b1nJFd696g-40">
          <mxGeometry x="610" y="230" width="90" height="20" as="geometry" />
        </mxCell>
        <mxCell id="B08eD8HXd-b1nJFd696g-61" value="Machine 1" style="whiteSpace=wrap;html=1;align=center;verticalAlign=middle;treeFolding=1;treeMoving=1;newEdgeStyle={&quot;edgeStyle&quot;:&quot;elbowEdgeStyle&quot;,&quot;startArrow&quot;:&quot;none&quot;,&quot;endArrow&quot;:&quot;none&quot;};" vertex="1" parent="B08eD8HXd-b1nJFd696g-40">
          <mxGeometry x="480" y="290" width="90" height="20" as="geometry" />
        </mxCell>
        <mxCell id="B08eD8HXd-b1nJFd696g-62" value="Machine 2.1" style="whiteSpace=wrap;html=1;align=center;verticalAlign=middle;treeFolding=1;treeMoving=1;newEdgeStyle={&quot;edgeStyle&quot;:&quot;elbowEdgeStyle&quot;,&quot;startArrow&quot;:&quot;none&quot;,&quot;endArrow&quot;:&quot;none&quot;};" vertex="1" parent="B08eD8HXd-b1nJFd696g-40">
          <mxGeometry x="360" y="290" width="90" height="20" as="geometry" />
        </mxCell>
        <mxCell id="B08eD8HXd-b1nJFd696g-63" style="edgeStyle=elbowEdgeStyle;rounded=0;orthogonalLoop=1;jettySize=auto;html=1;startArrow=none;endArrow=none;exitX=0.75;exitY=1;exitDx=0;exitDy=0;" edge="1" parent="B08eD8HXd-b1nJFd696g-40" source="B08eD8HXd-b1nJFd696g-58" target="B08eD8HXd-b1nJFd696g-58">
          <mxGeometry relative="1" as="geometry" />
        </mxCell>
      </root>
    </mxGraphModel>
  </diagram>
</mxfile>
